<svg xmlns="http://www.w3.org/2000/svg" version="1.1" viewBox="0 0 64 64">
  <defs>
    <style>
      .st0 {
        fill: #0c1c2f;
      }

      .st1 {
        fill: #1cc2e3;
      }
    </style>
  </defs>
  <rect class="st0" y="0" width="64" height="64"/>
  <path class="st1" d="M49.44,41.05c-.09-.39-.33-.73-.67-.94l-6.33-3.97,6.24-3.43c.48-.27.78-.77.78-1.32s-.3-1.06-.78-1.32l-15.95-8.78c-.46-.25-1-.25-1.45,0l-15.95,8.78c-.48.27-.78.77-.78,1.32s.3,1.06.78,1.32l6.24,3.44-6.33,3.96c-.7.44-.92,1.37-.48,2.08.44.7,1.37.92,2.08.48l7.75-4.85,6.68,3.68c.44.24,1.01.24,1.46,0l6.69-3.68,7.75,4.86c.24.15.52.23.8.23.11,0,.23-.01.34-.04.39-.09.73-.33.94-.67.21-.34.28-.75.19-1.14ZM44.82,31.39l-12.82,7.06-12.82-7.06,12.82-7.06,12.82,7.06Z"/>
</svg>